# xmcd
# 
# Track frame offsets:
#     150
#     21015
#     43665
#     64530
# 
# Disc length: 3179
# 
# Revision: 0
# Processed by: cddbd v1.5.2PL0 Copyright (c) Steve Scherf et al.
# Submitted via: fre:ac v1.0.17
# 
DISCID=290c6904
DTITLE=嵐 - Power of the Paradise
DYEAR=2016
DGENRE=JPop
TTITLE0=Power of the Paradise
TTITLE1=花
TTITLE2=Power of the Paradise(オリジナル・カラオケ)
TTITLE3=花(オリジナル・カラオケ)
EXTD=
EXTT0=
EXTT1=
EXTT2=
EXTT3=
PLAYORDER=
